<svg xmlns="http://www.w3.org/2000/svg" width="308" height="157" viewBox="0 0 308 157" fill="none">
  <path d="M42.3944 19.0648C41.1332 18.6262 39.761 18.4609 38.4196 18.5867C37.2371 19.6179 35.0267 19.9097 33.4019 20.0091C31.7298 18.5122 29.7127 17.1201 27.6333 16.1481C26.2439 15.4988 24.6205 14.8132 24.1917 13.4349C23.5067 11.2321 19.4102 10.345 16.9808 10.8508C13.9014 10.0843 10.3855 11.0721 7.91238 12.9265C6.82007 13.7457 8.04838 15.7773 8.99108 16.7408C9.93379 17.7042 11.1048 18.7796 10.8844 20.0598C9.74482 20.5959 8.19798 20.6248 6.91957 20.5715C6.16798 20.5399 5.39492 20.4055 4.67555 20.611C3.95689 20.8158 3.33128 21.533 3.6083 22.177C3.1144 22.9686 2.52028 23.3828 3.09364 24.1276C3.54029 24.7078 4.29904 25.1852 4.29403 25.8964C4.28973 26.4621 3.77221 26.9172 3.22248 27.1714C2.67275 27.4256 2.05645 27.5527 1.53749 27.8556C-0.0859313 28.8045 -0.100245 30.9402 0.0722618 32.7024C1.12162 33.8878 1.28625 35.9293 0.780899 37.386C0.588349 37.9418 0.278411 38.5305 0.495297 39.0791C0.742963 39.706 1.54537 39.9529 2.24757 40.1202C3.74787 40.4771 5.51375 40.7853 6.7077 39.8766C9.85434 37.4801 14.7404 38.7221 18.7259 39.5466C20.1024 39.8318 21.5504 40.298 22.355 41.3642C23.4273 42.7853 22.9699 44.7596 22.0866 46.2874C21.204 47.8152 19.937 49.1732 19.378 50.8248C18.854 52.373 19.0001 54.0371 19.1518 55.6532C19.3386 57.6433 19.5648 59.7381 20.8189 61.3686C22.1331 63.0776 22.9613 65.6287 22.8561 67.7196C22.7716 69.3982 22.1288 71.0485 22.2956 72.7212C22.5991 75.7557 25.4487 78.0317 28.3555 79.4923C31.3977 81.0214 34.0203 83.6227 35.069 86.6625C35.5951 88.189 35.7526 89.803 36.2164 91.3467C37.0195 94.0197 38.7639 96.4457 41.1232 98.1718C42.8418 99.4289 45.6642 99.8747 47.8245 100.237C48.9454 100.425 50.1537 100.574 50.9983 101.277C51.3884 101.601 51.669 102.022 52.0427 102.361C53.8486 104.004 57.1721 103.329 58.9988 104.953C59.4698 105.372 59.7933 105.91 60.207 106.377C61.3215 107.633 63.1339 108.336 64.8898 108.191C64.4796 109.424 66.0866 110.875 65.5905 112.081C65.1904 113.053 63.9821 113.48 63.1511 114.185C61.7102 115.408 61.4862 117.501 62.1075 119.211C62.7288 120.922 64.0408 122.336 65.3536 123.676C67.7909 126.162 70.7214 127.369 73.3648 129.67C75.8135 131.803 76.3719 135.253 75.8336 138.316C75.2953 141.378 73.8372 144.227 72.795 147.178C70.8488 152.689 70.3778 158.745 72.2381 164.282C74.0985 169.818 78.4541 174.753 84.2914 176.93C84.9364 177.17 85.7295 176.754 86.2026 176.284C86.6758 175.814 86.7781 175.061 86.446 174.498C85.3916 172.714 83.5184 171.192 82.1512 169.598C81.7217 169.097 81.2686 168.529 81.3237 167.893C81.386 167.179 82.0546 166.663 82.547 166.109C83.2936 165.267 83.6988 164.175 83.6658 163.089C83.6351 162.068 82.9887 161.069 83.0266 160.049C83.0646 159.028 83.6637 157.953 84.7145 157.624C85.1933 157.474 85.7245 157.488 86.1869 157.3C87.7072 156.683 87.4653 154.549 88.5647 153.403C89.0751 152.871 89.8267 152.607 90.5217 152.299C93.4615 150.998 95.8802 148.42 96.1486 145.429C96.3633 143.036 95.4171 140.131 97.3941 138.563C99.2086 137.124 102.002 138.079 104.367 137.726C105.329 137.582 105.971 136.758 106.422 135.963C106.872 135.167 106.924 134.222 106.762 133.338C106.563 132.25 106.055 131.187 106.167 130.089C106.324 128.543 107.639 127.352 108.656 126.113C109.858 124.649 110.719 122.95 111.166 121.163C111.677 119.12 110.256 116.708 108.266 115.69C106.274 114.671 103.886 114.642 101.609 114.582C99.3318 114.522 96.9195 114.364 95.0592 113.154C93.3549 112.046 92.3914 110.234 91.0443 108.768C88.7716 106.294 85.4661 104.866 82.2686 103.511C81.0618 102.999 79.7075 102.477 78.4455 102.859C77.948 103.01 77.5 103.295 76.9853 103.385C75.573 103.634 74.4321 102.407 73.1672 101.779C70.5424 100.475 66.7723 102.363 66.5382 105.099C65.1811 105.53 62.6658 105.158 61.8956 104.043C61.3409 103.241 61.119 102.118 60.1648 101.754C59.6544 101.559 59.0174 101.632 58.6029 101.296C57.9158 100.739 58.4498 99.7318 58.5729 98.8975C58.769 97.5652 57.6881 96.2989 56.3697 95.7194C55.0512 95.1398 53.5415 95.0924 52.0813 95.0496C50.6211 95.0068 49.1086 94.9456 47.803 94.343C45.2598 93.1702 44.2176 89.9953 45.3335 87.5884C46.4494 85.1808 49.3692 83.6958 52.213 83.7708C54.9996 83.8446 57.9415 85.7181 57.973 88.2831C57.9809 88.9331 59.1133 89.0062 59.7274 88.6842C60.3416 88.3622 60.6623 87.7115 60.8126 87.076C60.9629 86.4405 60.9844 85.78 61.1955 85.159C61.6844 83.7228 63.2663 82.6658 64.9027 82.6829C66.6098 82.7007 67.8074 81.134 69.0192 80.0277C70.231 78.9213 70.9561 77.2526 70.4773 75.7445C70.2189 74.9319 69.6298 74.1114 69.9247 73.3093C70.1559 72.6804 70.8574 72.3162 71.5223 72.06C73.3641 71.3501 75.3769 71.0176 77.3718 71.0953C79.1105 71.1624 80.0038 70.1575 80.8914 68.7805C81.532 67.7854 81.8176 66.5276 82.8391 65.8526C84.3673 64.8424 86.4803 65.7341 88.3579 65.6182C91.0979 65.4483 93.2389 62.6186 92.4608 60.1958C92.0908 59.0433 91.2139 58.0983 90.5017 57.0908C89.5203 55.7026 88.8274 54.1432 88.4703 52.5205C88.1417 51.0289 88.0487 49.3878 86.9807 48.2262C85.31 48.2986 83.2857 48.2538 81.7997 48.9598C81.5063 47.3951 81.182 45.7619 80.1319 44.5021C79.0819 43.2417 77.0626 42.5114 75.5766 43.3188C74.1243 44.1077 73.8093 45.9411 74.0784 47.4728C74.3476 49.0046 75.0376 50.4876 74.9925 52.0391C74.9474 53.5906 73.7757 55.3048 72.0893 55.2627C71.211 55.2409 70.4243 54.747 69.8066 54.1728C68.9219 53.3503 68.2211 52.2979 67.0837 51.804C66.2119 51.4254 65.2083 51.4333 64.267 51.239C61.0603 50.5772 58.8606 47.191 59.7461 44.2789C60.6315 41.3668 64.4224 39.5229 67.5368 40.4883C71.309 39.2154 72.8451 34.8381 71.3398 31.411C69.8345 27.9833 65.7888 25.8556 61.7746 25.6936C60.5993 25.6462 59.4025 25.741 58.2622 25.4756C55.0404 24.7256 53.3547 21.4664 50.5509 19.8254C48.702 18.7421 44.4395 19.776 42.3944 19.0648Z" fill="#9989C7" fill-opacity="0.35"/>
  <path d="M93.1792 8.47373C91.9394 10.2142 93.3274 12.5856 95.1319 13.8402C96.9364 15.0947 99.1947 15.8461 100.621 17.4602C102.915 20.0541 102.263 23.8908 101.006 27.0287C99.7502 30.1667 97.9793 33.3402 98.4102 36.6605C98.6135 38.2265 99.3079 39.7115 100.213 41.051C101.09 42.3477 102.286 43.5963 103.9 43.9538C105.951 44.4089 108.029 43.2979 109.585 41.9861C111.14 40.6743 112.491 39.0859 114.386 38.2318C117.115 37.001 120.626 37.4593 123.002 35.7175C125.944 33.5608 125.509 29.4469 126.318 26.0666C127.677 20.3907 133.015 16.1991 135.103 10.7134C135.511 9.64 135.792 8.51192 135.764 7.37528C135.673 3.70261 132.311 0.649624 128.545 -0.572624C123.897 -2.08134 119.201 -1.13501 114.431 -1.33455C111.838 -1.44321 108.972 -2.45275 106.462 -1.48338C102.59 0.0108452 103.726 3.52415 101.19 5.60909C98.995 7.41151 94.9436 5.99696 93.1792 8.47373Z" fill="#9989C7" fill-opacity="0.35"/>
  <path d="M197.775 30.7288C195.557 28.7426 191.935 30.6642 189.631 32.5661C187.342 34.4568 185.052 36.3468 182.763 38.2374C181.043 39.6579 179.192 41.1383 176.912 41.4899C174.633 41.841 171.891 40.5114 171.798 38.3863C173.358 37.0356 176.464 39.0428 177.889 37.571C179.151 36.2658 177.284 34.3975 175.639 33.5236C172.631 31.9253 169.525 30.2948 166.083 29.8641C162.641 29.4334 158.74 30.4917 156.953 33.2319C155.424 35.5769 155.704 38.6365 154.189 40.9895C153.242 42.4626 151.678 43.515 150.602 44.9117C149.526 46.3085 149.064 48.4165 150.383 49.6242C151.448 50.5995 153.257 50.6008 154.31 51.5867C155.121 52.3453 155.398 53.6117 156.461 54.0299C157.676 54.508 159.05 53.4306 159.341 52.2439C159.632 51.0579 159.223 49.8356 159.012 48.6351C158.38 45.0461 160.337 40.6345 164.25 40.1222C165.14 40.1531 165.436 41.3247 165.036 42.0576C164.636 42.7906 163.859 43.299 163.438 44.0214C162.645 45.3839 163.566 47.3253 165.191 47.7164C166.885 48.1241 169.716 47.7961 169.493 49.3944C169.255 51.0914 165.843 49.9798 164.739 51.3562C164.087 52.1682 164.664 53.2995 164.648 54.3091C164.618 56.2821 162.251 57.5675 160.112 57.7071C157.972 57.8467 155.83 57.2639 153.694 57.4431C151.558 57.6215 149.232 59.0143 149.33 60.9853C146.373 62.2596 143.294 63.2955 140.141 64.0778C140.276 66.2141 144.654 66.413 144.637 68.5526C144.626 69.8361 142.898 70.5045 141.507 70.4103C140.115 70.3162 138.711 69.8071 137.362 70.1344C135.031 70.7008 134.214 73.7162 135.504 75.5898C136.795 77.4633 139.448 78.2068 141.851 78.0323C142.815 77.9625 143.846 77.7261 144.449 77.032C145.024 76.3688 145.071 75.4561 145.313 74.6369C145.855 72.8028 147.555 71.3007 149.569 70.8773C150.705 70.6389 152.096 70.6198 152.706 69.7064C155.304 70.9997 157.131 73.5219 157.429 76.2259C158.265 77.2183 160.127 75.9388 159.945 74.6948C159.763 73.4508 158.569 72.5862 157.619 71.6846C156.67 70.7824 155.879 69.3811 156.622 68.328C161.063 69.5279 164.652 73.0787 165.633 77.2401C167.181 76.9569 168.036 75.0293 167.145 73.8301C167.626 72.8364 169.389 73.4047 169.897 74.3873C170.404 75.3698 170.359 76.5809 171.083 77.4403C173.179 79.9262 178.792 76.893 180.509 79.6141C181.712 81.5212 179 83.7451 176.604 83.6766C174.208 83.6088 172.021 82.3484 169.636 82.1297C167.003 81.888 164.445 82.9298 161.817 83.211C159.189 83.4922 155.95 82.5479 155.396 80.1679C155.246 79.5265 155.306 78.8219 154.937 78.2608C154.413 77.4633 153.232 77.2783 152.226 77.3836C147.855 77.84 143.418 81.9894 139.807 79.6786C137.499 83.8136 131.854 85.3678 128.705 89.0022C125.278 92.9574 125.565 99.0647 128.893 103.091C132.221 107.117 138.1 109.019 143.555 108.384C144.804 108.239 146.12 107.981 147.283 108.424C148.436 108.862 149.173 109.888 150.134 110.618C151.096 111.348 152.691 111.712 153.487 110.829C152.575 112.91 152.828 115.392 154.146 117.279C155.569 119.317 158.221 120.928 158.167 123.35C158.138 124.603 157.347 125.723 156.976 126.93C155.278 132.457 162.378 136.969 163.5 142.619C163.803 144.14 163.801 145.972 165.198 146.831C165.84 147.226 166.646 147.307 167.418 147.353C171.377 147.592 176.363 146.508 177.186 142.937C177.418 141.927 177.252 140.88 177.286 139.848C177.387 136.763 179.438 133.795 182.433 132.404C183.245 132.027 184.138 131.745 184.788 131.157C186.217 129.864 185.9 127.671 185.166 125.954C184.432 124.237 183.365 122.507 183.622 120.677C184.034 117.74 187.461 116.189 190.058 114.438C193.967 111.803 196.65 107.678 197.329 103.264C193.725 104.305 189.311 105.194 186.564 102.808C185.611 101.981 185.026 100.867 184.46 99.7799C182.763 96.5168 181.065 93.2537 179.368 89.9907C179.144 89.56 178.916 89.0687 179.099 88.6223C179.596 87.4112 181.574 88.4221 182.336 89.51C185.058 93.394 187.502 97.4434 189.646 101.622C194.03 100.89 198.224 99.2115 201.797 96.7611C202.937 95.9788 204.069 95.0437 204.455 93.7845C204.84 92.5254 204.132 90.9107 202.731 90.6861C202.189 90.5992 201.637 90.725 201.09 90.7776C197.784 91.0964 194.912 88.779 192.751 86.4563C194.232 84.9292 196.924 85.8142 198.945 86.6684C202.566 88.1981 206.405 89.2946 210.331 89.9209C211.309 90.077 212.314 90.21 213.196 90.6295C213.814 90.9232 214.346 91.3466 214.858 91.7799C219.388 95.6199 222.739 100.624 224.43 106.074C226.159 106.43 227.375 104.469 227.513 102.844C227.649 101.218 227.442 99.3433 228.715 98.2079C229.714 97.3163 231.357 97.1931 232.234 96.1987C233.339 94.9455 232.762 92.8323 234.053 91.7398C235.671 90.3707 238.288 92.0453 239.152 93.9057C240.016 95.7661 240.33 98.0538 242.149 99.1911C243.129 99.0614 244.109 98.931 245.089 98.8013C245.104 103.367 246.827 107.913 249.901 111.497C251.579 110.689 250.818 108.342 249.771 106.889C248.723 105.437 247.693 103.27 249.183 102.194C251.251 102.212 252.214 104.835 254.223 105.284C256.221 105.73 258.006 103.544 257.645 101.682C257.285 99.8194 255.544 98.4496 253.747 97.5316C252.136 95.9083 254.463 93.3156 256.819 92.9488C259.175 92.582 261.751 93.1991 263.886 92.2119C266.444 91.0285 267.3 87.9235 266.717 85.344C266.134 82.7645 264.472 80.5248 263.114 78.2061C261.953 76.2259 261.381 73.1354 263.635 72.2655C264.239 72.0323 264.915 72.0435 265.569 72.0178C274.098 71.6853 281.155 63.3772 279.444 55.6821C279.121 54.2327 278.513 52.7918 277.387 51.7348C275.359 49.831 271.918 49.3832 270.403 47.1112C268.551 44.3315 270.842 40.6444 273.808 38.8591C276.775 37.0738 280.399 36.2993 283.169 34.2651C283.907 34.2473 284.303 33.5816 284.438 32.9138C284.522 32.4943 284.41 32.0643 284.406 31.6375C284.396 30.4667 285.305 29.3392 286.526 29.0087C287.747 28.6781 289.175 29.1726 289.856 30.1618C290.695 31.382 290.358 32.9922 289.748 34.3231C289.138 35.654 288.276 36.9289 288.118 38.3658C287.96 39.8028 288.846 41.4913 290.405 41.6526C292.312 41.8495 293.545 39.7679 293.669 38.0063C293.793 36.2447 293.42 34.3211 294.45 32.8315C296.014 30.5654 300.336 30.0347 300.447 27.3524C300.538 25.1825 297.57 23.9089 297.038 21.7937C296.823 20.9402 297.036 20.0519 297.123 19.1793C297.45 15.9241 295.893 12.559 293.115 10.5202C290.337 8.48134 286.425 7.83202 283.048 8.84814C281.948 9.17939 280.908 9.67329 279.788 9.94395C278.135 10.3437 276.394 10.2396 274.689 10.1323C271.638 9.94066 268.587 9.74837 265.537 9.55673C262.806 9.38486 259.914 9.24261 257.492 10.4142C253.953 12.125 251.945 16.3917 247.976 16.8336C245.176 17.1457 242.683 15.3657 240.061 14.4108C235.821 12.8672 230.702 13.5936 227.165 16.2416C225.836 15.6179 226.246 13.7964 225.778 12.4932C225.289 11.1326 223.699 10.3114 222.148 10.187C220.596 10.0625 219.062 10.4971 217.582 10.9416C214.393 11.8998 210.684 13.5343 210.389 16.609C210.306 17.4743 210.518 18.3956 210.121 19.1846C209.557 20.3074 208.031 20.6814 207.081 21.5566C205.948 22.6011 205.769 24.2138 205.722 25.6883C205.676 27.1634 205.661 28.7466 204.733 29.9497C203.802 31.1515 198.925 31.7574 197.775 30.7288Z" fill="#9989C7" fill-opacity="0.35"/>
  <path d="M257.461 115.656C258.197 116.639 259.413 117.216 260.608 117.683C262.052 118.247 263.808 118.685 265.109 117.878C265.998 117.327 268.963 113.553 269.17 112.734C269.568 111.157 268.995 111.247 267.285 110.928C264.511 110.41 254.284 111.406 257.461 115.656Z" fill="#9989C7" fill-opacity="0.35"/>
  <path d="M247.379 115.123C251.351 121.775 259.488 126.134 267.735 126.029C268.306 125.491 267.463 124.67 266.71 124.377C264.628 123.568 262.389 123.164 260.256 122.477C258.123 121.789 256.014 120.749 254.749 119.025C254.221 118.305 253.861 117.494 253.426 116.723C252.174 114.504 247.281 108.911 244.219 110.252C245.017 111.795 246.407 113.494 247.379 115.123Z" fill="#9989C7" fill-opacity="0.35"/>
  <path d="M268.94 130.613C267.881 131.703 266.891 133.035 265.346 133.374C264.432 133.575 263.458 133.385 262.543 133.58C259.852 134.153 259.227 137.48 259.839 139.958C260.451 142.435 261.712 145.035 260.707 147.401C260.504 147.877 260.21 148.344 260.219 148.854C260.231 149.467 260.687 150.005 261.22 150.373C263.676 152.068 267.164 150.851 269.865 149.506C272.565 148.16 275.837 146.705 278.532 148.059C281.417 149.508 281.689 153.177 283.466 155.721C285.029 157.957 288.475 159.296 290.913 157.869C291.741 157.385 292.356 156.652 292.952 155.936C294.173 154.467 295.394 152.999 296.616 151.531C298.232 149.588 299.906 147.518 300.217 145.089C300.818 140.397 296.3 136.63 292.222 133.759C292.005 132.263 291.772 130.722 290.943 129.421C289.281 126.812 285.885 126.534 286.811 130.23C284.152 130.314 282.001 126.681 279.042 126.331C275.441 125.905 271.232 128.253 268.94 130.613Z" fill="#9989C7" fill-opacity="0.35"/>
  <path d="M136.008 -17.1633H113.793C112.863 -17.1633 112.11 -16.4698 112.11 -15.615C112.11 -14.7596 112.864 -14.0668 113.793 -14.0668H136.008C136.938 -14.0668 137.691 -14.7603 137.691 -15.615C137.692 -16.4705 136.938 -17.1633 136.008 -17.1633Z" fill="#9989C7" fill-opacity="0.35"/>
  <path d="M144.783 -20H122.568C121.638 -20 120.885 -19.3066 120.885 -18.4518C120.885 -17.5963 121.639 -16.9035 122.568 -16.9035H144.783C145.713 -16.9035 146.466 -17.597 146.466 -18.4518C146.466 -19.3066 145.713 -20 144.783 -20Z" fill="#9989C7" fill-opacity="0.35"/>
  <path d="M151.424 -14.1082H129.208C128.278 -14.1082 127.525 -13.4148 127.525 -12.56C127.525 -11.7052 128.279 -11.0118 129.208 -11.0118H151.424C152.353 -11.0118 153.107 -11.7052 153.107 -12.56C153.107 -13.4148 152.353 -14.1082 151.424 -14.1082Z" fill="#9989C7" fill-opacity="0.35"/>
  <path d="M221.738 156.685H210.067H203.704C202.949 156.685 202.337 157.248 202.337 157.943C202.337 158.637 202.949 159.2 203.704 159.2H221.738C222.493 159.2 223.105 158.637 223.105 157.943C223.104 157.507 222.498 156.898 222.498 156.898C222.498 156.898 222.02 156.685 221.738 156.685Z" fill="#9989C7" fill-opacity="0.35"/>
  <path d="M234.252 159.165H216.218C215.463 159.165 214.851 159.728 214.851 160.422C214.851 161.116 215.462 161.68 216.218 161.68H234.252C235.007 161.68 235.619 161.116 235.619 160.422C235.619 159.728 235.007 159.165 234.252 159.165Z" fill="#9989C7" fill-opacity="0.35"/>
  <path d="M77.6964 -18.0663H59.6619C58.9075 -18.0663 58.2955 -17.5039 58.2955 -16.8092C58.2955 -16.1151 58.9068 -15.552 59.6619 -15.552H77.6964C78.4509 -15.552 79.0629 -16.1151 79.0629 -16.8092C79.0622 -17.5033 78.4509 -18.0663 77.6964 -18.0663Z" fill="#9989C7" fill-opacity="0.35"/>
  <path d="M72.2968 -15.5865H54.2623C53.5078 -15.5865 52.8958 -15.0235 52.8958 -14.3294C52.8958 -13.6353 53.5071 -13.0722 54.2623 -13.0722H72.2968C73.0512 -13.0722 73.6632 -13.6353 73.6632 -14.3294C73.6632 -15.0235 73.0512 -15.5865 72.2968 -15.5865Z" fill="#9989C7" fill-opacity="0.35"/>
  <path d="M49.9093 160.596H31.8748C31.1203 160.596 30.5083 161.159 30.5083 161.853C30.5083 162.547 31.1196 163.11 31.8748 163.11H49.9093C50.6637 163.11 51.2757 162.547 51.2757 161.853C51.2757 161.159 50.6637 160.596 49.9093 160.596Z" fill="#9989C7" fill-opacity="0.35"/>
  <path d="M21.129 141.991H8.54025C7.7858 141.991 7.1738 142.554 7.1738 143.248C7.1738 143.942 7.78509 144.505 8.54025 144.505H21.1297C21.8841 144.505 22.4961 143.942 22.4961 143.248C22.4954 142.554 21.8841 141.991 21.129 141.991Z" fill="#9989C7" fill-opacity="0.35"/>
  <path d="M27.3753 139.476H14.7865C14.0321 139.476 13.4201 140.039 13.4201 140.734C13.4201 141.428 14.0314 141.991 14.7865 141.991H27.376C28.1304 141.991 28.7424 141.428 28.7424 140.734C28.7417 140.039 28.1304 139.476 27.3753 139.476Z" fill="#9989C7" fill-opacity="0.35"/>
  <path d="M131.995 143.068H119.406C118.651 143.068 118.039 143.631 118.039 144.325C118.039 145.019 118.651 145.582 119.406 145.582H131.995C132.75 145.582 133.362 145.019 133.362 144.325C133.362 143.631 132.75 143.068 131.995 143.068Z" fill="#9989C7" fill-opacity="0.35"/>
  <path d="M129.33 145.574H116.74C115.986 145.574 115.374 146.136 115.374 146.831C115.374 147.525 115.985 148.088 116.74 148.088H129.33C130.084 148.088 130.696 147.525 130.696 146.831C130.695 146.136 130.084 145.574 129.33 145.574Z" fill="#9989C7" fill-opacity="0.35"/>
  <path fill-rule="evenodd" clip-rule="evenodd" d="M294.12 84.6863H288.276C288.38 84.6632 288.488 84.651 288.599 84.651H294.443C294.339 84.6741 294.231 84.6863 294.12 84.6863Z" fill="#9989C7" fill-opacity="0.35"/>
  <path fill-rule="evenodd" clip-rule="evenodd" d="M300.268 87.1653H288.599C288.319 87.1653 288.058 87.0876 287.841 86.9543H299.51C299.79 86.9543 300.051 87.032 300.268 87.1653ZM294.443 84.651C294.339 84.6741 294.231 84.6863 294.12 84.6863H288.276C288.38 84.6632 288.488 84.651 288.599 84.651H294.443Z" fill="#9989C7" fill-opacity="0.35"/>
  <path fill-rule="evenodd" clip-rule="evenodd" d="M287.841 86.9543C288.058 87.0876 288.319 87.1653 288.599 87.1653H300.268C300.051 87.032 299.79 86.9543 299.51 86.9543H287.841Z" fill="#9989C7" fill-opacity="0.35"/>
  <path d="M295.486 83.4291C295.486 82.735 294.875 82.172 294.12 82.172H276.085C275.331 82.172 274.719 82.735 274.719 83.4291C274.719 84.1239 275.33 84.6863 276.085 84.6863H288.276C288.38 84.6632 288.488 84.651 288.599 84.651H294.443C295.041 84.5174 295.486 84.0209 295.486 83.4291Z" fill="#9989C7" fill-opacity="0.35"/>
  <path d="M306.634 87.1653C307.388 87.1653 308 86.6029 308 85.9081C308 85.214 307.388 84.651 306.634 84.651H294.443C294.339 84.6741 294.231 84.6863 294.12 84.6863H288.276C287.677 84.8198 287.233 85.3163 287.233 85.9081C287.233 86.3423 287.472 86.7248 287.835 86.9507L287.841 86.9543H299.51C299.79 86.9543 300.051 87.032 300.268 87.1653H306.634Z" fill="#9989C7" fill-opacity="0.35"/>
  <path d="M281.475 89.4686H299.51C300.264 89.4686 300.876 88.9062 300.876 88.2114C300.876 87.7752 300.635 87.3907 300.268 87.1653H288.599C288.319 87.1653 288.058 87.0876 287.841 86.9543H281.475C280.721 86.9543 280.109 87.5173 280.109 88.2114C280.11 88.9055 280.721 89.4686 281.475 89.4686Z" fill="#9989C7" fill-opacity="0.35"/>
  <path fill-rule="evenodd" clip-rule="evenodd" d="M222.498 156.898C222.498 156.898 222.02 156.685 221.738 156.685H210.067L210.063 156.683C210.281 156.819 210.544 156.898 210.827 156.898H222.498Z" fill="#9989C7" fill-opacity="0.35"/>
</svg>