<svg xmlns="http://www.w3.org/2000/svg" width="128" height="157" viewBox="0 0 128 157" fill="none">
  <path d="M61.0867 106.639C60.7999 106.639 60.523 106.527 60.3172 106.324L44.1929 90.4881C43.7631 90.0658 43.7588 89.3773 44.184 88.9499C44.6092 88.5228 45.3023 88.5187 45.732 88.941L60.9238 103.862L98.1393 49.8346C98.4809 49.3387 99.1626 49.2123 99.661 49.5513C100.16 49.8906 100.287 50.5677 99.9461 51.0634L61.9901 106.165C61.8069 106.432 61.5142 106.603 61.1912 106.634C61.1561 106.637 61.1212 106.639 61.0867 106.639Z" stroke="#97E334" stroke-width="1.9"/>
  <path d="M72.0147 173C71.8241 173 71.6314 172.951 71.4558 172.847C64.8194 168.923 58.4022 164.343 52.3716 159.226C44.7942 163.49 37.0594 167.248 29.3703 170.403C28.8113 170.632 28.1715 170.368 27.9408 169.812C27.7101 169.257 27.9761 168.621 28.5349 168.392C35.9122 165.365 43.3337 161.776 50.6169 157.712C39.387 147.85 20.1783 127.657 9.145 97.3612C3.82838 82.7623 1.08863 67.5299 1.00211 52.0876C0.903902 34.5686 4.23039 16.5772 10.8892 -1.3871C11.0285 -1.76274 11.3641 -2.03207 11.7628 -2.08823C12.1617 -2.14477 12.5592 -1.97844 12.7981 -1.65605C15.5532 2.06332 19.8829 4.93152 25.3189 6.63834C30.6814 8.32212 36.7587 8.77831 42.8933 7.95733C49.831 7.02908 56.3657 4.51794 61.7911 0.695549C67.8943 -3.60432 72.3571 -9.32329 75.0553 -16.3024C75.2136 -16.7111 75.6029 -16.9859 76.0433 -16.9996C76.4788 -17.011 76.8895 -16.763 77.0727 -16.3645C80.1225 -9.73513 84.0494 -4.40904 88.7438 -0.534177C92.8094 2.82157 97.4703 5.11198 102.597 6.27335C115.032 9.09004 127.586 4.60545 132.529 0.520896C132.799 0.297257 133.163 0.21671 133.502 0.304036C133.843 0.391555 134.121 0.636687 134.249 0.962561C141.957 20.6379 144.591 40.2587 142.079 59.2801C139.934 75.5221 134.062 91.3193 124.627 106.233C116.922 118.412 106.687 130.089 95.0283 140.001C85.4988 148.103 75.2856 154.835 66.2702 158.958C65.9151 159.12 65.5007 159.082 65.1817 158.859C63.3541 157.578 61.5414 156.235 59.7848 154.86C58.0033 155.958 56.1964 157.035 54.3908 158.076C60.1525 162.91 66.2637 167.246 72.5749 170.977C73.0944 171.284 73.2649 171.952 72.9559 172.468C72.7517 172.81 72.3879 173 72.0147 173ZM61.7562 153.631C63.1222 154.686 64.5191 155.72 65.9274 156.717C74.6237 152.655 84.4272 146.152 93.6052 138.348C105.098 128.577 115.184 117.071 122.774 105.075C132.04 90.4288 137.805 74.9259 139.909 58.9968C142.315 40.7761 139.899 21.9775 132.729 3.09981C129.779 5.14935 125.531 6.96422 121.028 8.06828C116.569 9.16188 109.667 10.1062 102.11 8.39434C96.6453 7.15629 91.6776 4.71543 87.3451 1.13915C82.9303 -2.50491 79.1708 -7.34151 76.1477 -13.2615C73.2419 -6.89307 68.8468 -1.6088 63.0575 2.46995C57.3441 6.49506 50.4725 9.13807 43.1856 10.1132C41.0804 10.3949 38.9936 10.5322 36.9522 10.5324C26.7666 10.5328 17.6461 7.1166 12.2877 1.1647C6.15758 18.2838 3.09785 35.4026 3.19138 52.0754C3.27654 67.2687 5.97227 82.256 11.2037 96.6208C22.2606 126.982 41.6556 147.047 52.631 156.574C54.4159 155.554 56.2053 154.496 57.9727 153.416C48.7322 145.914 40.5355 137.147 33.5945 127.34C26.335 117.082 20.6374 105.952 16.6604 94.2585C7.85423 68.3567 7.55162 39.7313 15.8085 13.6556C15.9141 13.3219 16.1748 13.0592 16.509 12.9494C16.843 12.8396 17.21 12.8962 17.4952 13.1014C27.3231 20.1792 37.9904 19.8123 45.2087 18.2581C59.109 15.265 71.0764 5.84137 75.2792 -1.5058C75.4908 -1.87582 75.8989 -2.08958 76.3272 -2.05183C76.7537 -2.01446 77.1193 -1.73311 77.2625 -1.33192C80.8831 8.81025 88.3332 16.2773 98.2404 19.6938C108.163 23.1156 119.553 21.9716 127.967 16.7085C128.272 16.5176 128.652 16.4885 128.983 16.6301C129.314 16.7718 129.554 17.0665 129.624 17.4181C135.696 47.9409 130.742 76.4304 114.899 102.095C108.353 112.7 99.916 122.826 89.8235 132.192C81.5072 139.909 72.0702 147.117 61.7562 153.631ZM17.4584 15.722C9.79235 40.9788 10.2347 68.5619 18.7346 93.5623C22.6443 105.058 28.2463 116.002 35.3853 126.088C42.3565 135.938 50.6144 144.72 59.9383 152.2C70.3903 145.652 79.9388 138.388 88.3289 130.602C98.2776 121.37 106.589 111.396 113.033 100.957C128.316 76.1996 133.27 48.7518 127.768 19.3561C123.642 21.6613 118.889 23.1344 113.923 23.6376C108.399 24.1972 102.728 23.5441 97.5219 21.749C87.6512 18.345 80.075 11.1748 75.9901 1.43617C73.482 5.00471 69.5898 8.72002 65.0127 11.8759C59.019 16.0083 52.3311 18.9505 45.6717 20.3843C35.2398 22.6302 25.5199 21.0167 17.4584 15.722Z" stroke="#97E334" stroke-width="1.9"/>
</svg>